<mxfile host="app.diagrams.net" modified="2023-12-09T21:57:45.713Z" agent="Mozilla/5.0 (Windows NT 10.0; Win64; x64; rv:120.0) Gecko/20100101 Firefox/120.0" etag="04KvUo0UMymYSzPoPuSf" version="22.1.7" type="google" pages="4">
  <diagram id="yOMKcBQqRRvNda39PTkN" name="diagramme fonctionnel">
    <mxGraphModel grid="1" page="1" gridSize="10" guides="1" tooltips="1" connect="1" arrows="1" fold="1" pageScale="1" pageWidth="1100" pageHeight="850" math="0" shadow="0">
      <root>
        <mxCell id="0" />
        <mxCell id="1" parent="0" />
        <mxCell id="0Sa3EILurVrCI4OGCKpv-1" value="Objet" style="rounded=1;whiteSpace=wrap;html=1;fillColor=#d5e8d4;strokeColor=#82b366;" vertex="1" parent="1">
          <mxGeometry x="70" y="60" width="180" height="60" as="geometry" />
        </mxCell>
        <mxCell id="0Sa3EILurVrCI4OGCKpv-2" value="Fonction d&#39;usage" style="rounded=1;whiteSpace=wrap;html=1;fillColor=#dae8fc;strokeColor=#6c8ebf;" vertex="1" parent="1">
          <mxGeometry x="280" y="60" width="180" height="60" as="geometry" />
        </mxCell>
        <mxCell id="0Sa3EILurVrCI4OGCKpv-3" value="Fonctions techniques" style="rounded=1;whiteSpace=wrap;html=1;fillColor=#fff2cc;strokeColor=#d6b656;" vertex="1" parent="1">
          <mxGeometry x="490" y="60" width="180" height="60" as="geometry" />
        </mxCell>
        <mxCell id="0Sa3EILurVrCI4OGCKpv-4" value="Solutions techniques" style="rounded=1;whiteSpace=wrap;html=1;fillColor=#ffe6cc;strokeColor=#d79b00;" vertex="1" parent="1">
          <mxGeometry x="700" y="60" width="180" height="60" as="geometry" />
        </mxCell>
        <mxCell id="0Sa3EILurVrCI4OGCKpv-15" style="edgeStyle=orthogonalEdgeStyle;rounded=0;orthogonalLoop=1;jettySize=auto;html=1;exitX=1;exitY=0.5;exitDx=0;exitDy=0;entryX=0;entryY=0.5;entryDx=0;entryDy=0;" edge="1" parent="1" source="0Sa3EILurVrCI4OGCKpv-5" target="0Sa3EILurVrCI4OGCKpv-6">
          <mxGeometry relative="1" as="geometry" />
        </mxCell>
        <mxCell id="0Sa3EILurVrCI4OGCKpv-5" value="Chatbot" style="rounded=0;whiteSpace=wrap;html=1;fillColor=#d5e8d4;strokeColor=#82b366;" vertex="1" parent="1">
          <mxGeometry x="100" y="290" width="120" height="60" as="geometry" />
        </mxCell>
        <mxCell id="0Sa3EILurVrCI4OGCKpv-6" value="Recommandation de film" style="rounded=0;whiteSpace=wrap;html=1;fillColor=#dae8fc;strokeColor=#6c8ebf;" vertex="1" parent="1">
          <mxGeometry x="310" y="290" width="120" height="60" as="geometry" />
        </mxCell>
        <mxCell id="0Sa3EILurVrCI4OGCKpv-25" style="edgeStyle=orthogonalEdgeStyle;rounded=0;orthogonalLoop=1;jettySize=auto;html=1;exitX=1;exitY=0.5;exitDx=0;exitDy=0;entryX=0;entryY=0.5;entryDx=0;entryDy=0;endArrow=none;endFill=0;" edge="1" parent="1" source="0Sa3EILurVrCI4OGCKpv-7" target="0Sa3EILurVrCI4OGCKpv-13">
          <mxGeometry relative="1" as="geometry" />
        </mxCell>
        <mxCell id="0Sa3EILurVrCI4OGCKpv-7" value="&lt;div&gt;Tenir une conversation avec un humain&lt;/div&gt;" style="rounded=0;whiteSpace=wrap;html=1;fillColor=#fff2cc;strokeColor=#d6b656;" vertex="1" parent="1">
          <mxGeometry x="520" y="340" width="120" height="60" as="geometry" />
        </mxCell>
        <mxCell id="0Sa3EILurVrCI4OGCKpv-24" style="edgeStyle=orthogonalEdgeStyle;rounded=0;orthogonalLoop=1;jettySize=auto;html=1;exitX=1;exitY=0.5;exitDx=0;exitDy=0;entryX=0;entryY=0.5;entryDx=0;entryDy=0;endArrow=none;endFill=0;" edge="1" parent="1" source="0Sa3EILurVrCI4OGCKpv-8" target="0Sa3EILurVrCI4OGCKpv-12">
          <mxGeometry relative="1" as="geometry" />
        </mxCell>
        <mxCell id="0Sa3EILurVrCI4OGCKpv-8" value="&lt;div&gt;Suggérer un film à partir des goûts de l&#39;utilisateur&lt;/div&gt;" style="rounded=0;whiteSpace=wrap;html=1;fillColor=#fff2cc;strokeColor=#d6b656;" vertex="1" parent="1">
          <mxGeometry x="520" y="250" width="120" height="60" as="geometry" />
        </mxCell>
        <mxCell id="0Sa3EILurVrCI4OGCKpv-26" style="edgeStyle=orthogonalEdgeStyle;rounded=0;orthogonalLoop=1;jettySize=auto;html=1;exitX=1;exitY=0.5;exitDx=0;exitDy=0;entryX=0;entryY=0.5;entryDx=0;entryDy=0;endArrow=none;endFill=0;" edge="1" parent="1" source="0Sa3EILurVrCI4OGCKpv-9" target="0Sa3EILurVrCI4OGCKpv-14">
          <mxGeometry relative="1" as="geometry" />
        </mxCell>
        <mxCell id="0Sa3EILurVrCI4OGCKpv-9" value="Extraire les goûts de l&#39;utilisateur" style="rounded=0;whiteSpace=wrap;html=1;fillColor=#fff2cc;strokeColor=#d6b656;" vertex="1" parent="1">
          <mxGeometry x="520" y="430" width="120" height="60" as="geometry" />
        </mxCell>
        <mxCell id="0Sa3EILurVrCI4OGCKpv-22" style="edgeStyle=orthogonalEdgeStyle;rounded=0;orthogonalLoop=1;jettySize=auto;html=1;exitX=1;exitY=0.5;exitDx=0;exitDy=0;entryX=0;entryY=0.5;entryDx=0;entryDy=0;endArrow=none;endFill=0;" edge="1" parent="1" source="0Sa3EILurVrCI4OGCKpv-10" target="0Sa3EILurVrCI4OGCKpv-11">
          <mxGeometry relative="1" as="geometry" />
        </mxCell>
        <mxCell id="0Sa3EILurVrCI4OGCKpv-10" value="Résumer un film" style="rounded=0;whiteSpace=wrap;html=1;fillColor=#fff2cc;strokeColor=#d6b656;" vertex="1" parent="1">
          <mxGeometry x="520" y="160" width="120" height="60" as="geometry" />
        </mxCell>
        <mxCell id="0Sa3EILurVrCI4OGCKpv-11" value="LLM, prompt pour la synthèse de texte" style="rounded=0;whiteSpace=wrap;html=1;fillColor=#ffe6cc;strokeColor=#d79b00;" vertex="1" parent="1">
          <mxGeometry x="730" y="160" width="120" height="60" as="geometry" />
        </mxCell>
        <mxCell id="0Sa3EILurVrCI4OGCKpv-12" value="Algorithme de suggestion" style="rounded=0;whiteSpace=wrap;html=1;fillColor=#ffe6cc;strokeColor=#d79b00;" vertex="1" parent="1">
          <mxGeometry x="730" y="250" width="120" height="60" as="geometry" />
        </mxCell>
        <mxCell id="0Sa3EILurVrCI4OGCKpv-13" value="LLM conversationnel" style="rounded=0;whiteSpace=wrap;html=1;fillColor=#ffe6cc;strokeColor=#d79b00;" vertex="1" parent="1">
          <mxGeometry x="730" y="340" width="120" height="60" as="geometry" />
        </mxCell>
        <mxCell id="0Sa3EILurVrCI4OGCKpv-14" value="LLM, prompt pour l&#39;extraction d&#39;informations" style="rounded=0;whiteSpace=wrap;html=1;fillColor=#ffe6cc;strokeColor=#d79b00;" vertex="1" parent="1">
          <mxGeometry x="730" y="430" width="120" height="60" as="geometry" />
        </mxCell>
        <mxCell id="0Sa3EILurVrCI4OGCKpv-18" value="" style="endArrow=classic;html=1;rounded=0;exitX=1;exitY=0;exitDx=0;exitDy=0;entryX=0;entryY=0.5;entryDx=0;entryDy=0;" edge="1" parent="1" source="0Sa3EILurVrCI4OGCKpv-6" target="0Sa3EILurVrCI4OGCKpv-10">
          <mxGeometry width="50" height="50" relative="1" as="geometry">
            <mxPoint x="380" y="330" as="sourcePoint" />
            <mxPoint x="430" y="280" as="targetPoint" />
          </mxGeometry>
        </mxCell>
        <mxCell id="0Sa3EILurVrCI4OGCKpv-19" value="" style="endArrow=classic;html=1;rounded=0;exitX=1;exitY=0.25;exitDx=0;exitDy=0;entryX=0;entryY=0.5;entryDx=0;entryDy=0;" edge="1" parent="1" source="0Sa3EILurVrCI4OGCKpv-6" target="0Sa3EILurVrCI4OGCKpv-8">
          <mxGeometry width="50" height="50" relative="1" as="geometry">
            <mxPoint x="380" y="330" as="sourcePoint" />
            <mxPoint x="430" y="280" as="targetPoint" />
          </mxGeometry>
        </mxCell>
        <mxCell id="0Sa3EILurVrCI4OGCKpv-20" value="" style="endArrow=classic;html=1;rounded=0;exitX=1;exitY=0.75;exitDx=0;exitDy=0;entryX=0;entryY=0.5;entryDx=0;entryDy=0;" edge="1" parent="1" source="0Sa3EILurVrCI4OGCKpv-6" target="0Sa3EILurVrCI4OGCKpv-7">
          <mxGeometry width="50" height="50" relative="1" as="geometry">
            <mxPoint x="380" y="330" as="sourcePoint" />
            <mxPoint x="430" y="280" as="targetPoint" />
          </mxGeometry>
        </mxCell>
        <mxCell id="0Sa3EILurVrCI4OGCKpv-21" value="" style="endArrow=classic;html=1;rounded=0;exitX=1;exitY=1;exitDx=0;exitDy=0;entryX=0;entryY=0.5;entryDx=0;entryDy=0;" edge="1" parent="1" source="0Sa3EILurVrCI4OGCKpv-6" target="0Sa3EILurVrCI4OGCKpv-9">
          <mxGeometry width="50" height="50" relative="1" as="geometry">
            <mxPoint x="380" y="330" as="sourcePoint" />
            <mxPoint x="430" y="280" as="targetPoint" />
          </mxGeometry>
        </mxCell>
        <mxCell id="vEPjDl1ZndvgmW6_tk4y-1" value="" style="endArrow=none;html=1;dashed=1;jumpSize=9;jumpStyle=none;shadow=0;rounded=0;strokeColor=#808080;" edge="1" parent="1">
          <mxGeometry width="50" height="50" relative="1" as="geometry">
            <mxPoint x="260" y="520" as="sourcePoint" />
            <mxPoint x="260" y="40" as="targetPoint" />
          </mxGeometry>
        </mxCell>
        <mxCell id="vEPjDl1ZndvgmW6_tk4y-3" value="" style="endArrow=none;html=1;dashed=1;jumpSize=9;jumpStyle=none;shadow=0;rounded=0;strokeColor=#808080;" edge="1" parent="1">
          <mxGeometry width="50" height="50" relative="1" as="geometry">
            <mxPoint x="470" y="520" as="sourcePoint" />
            <mxPoint x="470" y="40" as="targetPoint" />
          </mxGeometry>
        </mxCell>
        <mxCell id="vEPjDl1ZndvgmW6_tk4y-4" value="" style="endArrow=none;html=1;dashed=1;jumpSize=9;jumpStyle=none;shadow=0;rounded=0;strokeColor=#808080;" edge="1" parent="1">
          <mxGeometry width="50" height="50" relative="1" as="geometry">
            <mxPoint x="680" y="520" as="sourcePoint" />
            <mxPoint x="680" y="40" as="targetPoint" />
          </mxGeometry>
        </mxCell>
      </root>
    </mxGraphModel>
  </diagram>
  <diagram name="diagramme de cas d&#39;utilisation" id="0xgaSPCyKDACxHNkrhEV">
    <mxGraphModel grid="1" page="1" gridSize="10" guides="1" tooltips="1" connect="1" arrows="1" fold="1" pageScale="1" pageWidth="850" pageHeight="1100" math="0" shadow="0">
      <root>
        <mxCell id="0" />
        <mxCell id="1" parent="0" />
        <mxCell id="XRUNTEiN1X9d6JkHVsGu-1" value="LLM" style="rounded=0;whiteSpace=wrap;html=1;" vertex="1" parent="1">
          <mxGeometry x="365" y="120" width="120" height="60" as="geometry" />
        </mxCell>
        <mxCell id="cSPWcMHfu3NQl_Z9fr3y-1" value="Utilisateur" style="shape=umlActor;verticalLabelPosition=bottom;verticalAlign=top;html=1;outlineConnect=0;" vertex="1" parent="1">
          <mxGeometry x="210" y="120" width="30" height="60" as="geometry" />
        </mxCell>
        <mxCell id="cSPWcMHfu3NQl_Z9fr3y-2" value="Chatbot" style="swimlane;whiteSpace=wrap;html=1;" vertex="1" parent="1">
          <mxGeometry x="330" y="50" width="380" height="160" as="geometry" />
        </mxCell>
        <mxCell id="XRUNTEiN1X9d6JkHVsGu-2" value="Algorithme de recommandation" style="rounded=0;whiteSpace=wrap;html=1;" vertex="1" parent="cSPWcMHfu3NQl_Z9fr3y-2">
          <mxGeometry x="250" y="70" width="120" height="60" as="geometry" />
        </mxCell>
        <mxCell id="cSPWcMHfu3NQl_Z9fr3y-3" value="" style="endArrow=classic;startArrow=classic;html=1;rounded=0;" edge="1" parent="1" source="cSPWcMHfu3NQl_Z9fr3y-1" target="XRUNTEiN1X9d6JkHVsGu-1">
          <mxGeometry width="50" height="50" relative="1" as="geometry">
            <mxPoint x="400" y="290" as="sourcePoint" />
            <mxPoint x="450" y="240" as="targetPoint" />
          </mxGeometry>
        </mxCell>
        <mxCell id="cSPWcMHfu3NQl_Z9fr3y-4" value="Discute" style="edgeLabel;html=1;align=center;verticalAlign=middle;resizable=0;points=[];" connectable="0" vertex="1" parent="cSPWcMHfu3NQl_Z9fr3y-3">
          <mxGeometry x="0.083" y="-4" relative="1" as="geometry">
            <mxPoint x="-11" y="-17" as="offset" />
          </mxGeometry>
        </mxCell>
        <mxCell id="cSPWcMHfu3NQl_Z9fr3y-5" value="" style="endArrow=classic;html=1;rounded=0;entryX=0;entryY=0.25;entryDx=0;entryDy=0;exitX=1;exitY=0.25;exitDx=0;exitDy=0;" edge="1" parent="1" source="XRUNTEiN1X9d6JkHVsGu-1" target="XRUNTEiN1X9d6JkHVsGu-2">
          <mxGeometry width="50" height="50" relative="1" as="geometry">
            <mxPoint x="400" y="290" as="sourcePoint" />
            <mxPoint x="450" y="240" as="targetPoint" />
          </mxGeometry>
        </mxCell>
        <mxCell id="cSPWcMHfu3NQl_Z9fr3y-6" value="&lt;div&gt;Goûts de&lt;/div&gt;&lt;div&gt;l&#39;utilisateur&lt;/div&gt;" style="edgeLabel;html=1;align=center;verticalAlign=middle;resizable=0;points=[];" connectable="0" vertex="1" parent="cSPWcMHfu3NQl_Z9fr3y-5">
          <mxGeometry x="0.2" y="1" relative="1" as="geometry">
            <mxPoint x="-12" y="-24" as="offset" />
          </mxGeometry>
        </mxCell>
        <mxCell id="cSPWcMHfu3NQl_Z9fr3y-7" value="" style="endArrow=classic;html=1;rounded=0;entryX=1;entryY=0.75;entryDx=0;entryDy=0;exitX=0;exitY=0.75;exitDx=0;exitDy=0;" edge="1" parent="1" source="XRUNTEiN1X9d6JkHVsGu-2" target="XRUNTEiN1X9d6JkHVsGu-1">
          <mxGeometry width="50" height="50" relative="1" as="geometry">
            <mxPoint x="400" y="290" as="sourcePoint" />
            <mxPoint x="450" y="240" as="targetPoint" />
          </mxGeometry>
        </mxCell>
        <mxCell id="cSPWcMHfu3NQl_Z9fr3y-8" value="Recommande" style="edgeLabel;html=1;align=center;verticalAlign=middle;resizable=0;points=[];" connectable="0" vertex="1" parent="cSPWcMHfu3NQl_Z9fr3y-7">
          <mxGeometry x="-0.2" relative="1" as="geometry">
            <mxPoint x="-12" y="15" as="offset" />
          </mxGeometry>
        </mxCell>
      </root>
    </mxGraphModel>
  </diagram>
  <diagram id="da2immZD-yfgd3DW_MQB" name="diagramme séquentiel">
    <mxGraphModel grid="1" page="1" gridSize="10" guides="1" tooltips="1" connect="1" arrows="1" fold="1" pageScale="1" pageWidth="850" pageHeight="1100" math="0" shadow="0">
      <root>
        <mxCell id="0" />
        <mxCell id="1" parent="0" />
        <mxCell id="IZcy4V6gYxRNqegxVH6X-1" value="" style="shape=umlLifeline;perimeter=lifelinePerimeter;whiteSpace=wrap;html=1;container=1;dropTarget=0;collapsible=0;recursiveResize=0;outlineConnect=0;portConstraint=eastwest;newEdgeStyle={&quot;curved&quot;:0,&quot;rounded&quot;:0};participant=umlActor;" vertex="1" parent="1">
          <mxGeometry x="101" y="154" width="20" height="620" as="geometry" />
        </mxCell>
        <mxCell id="IZcy4V6gYxRNqegxVH6X-2" value="Chatbot" style="shape=umlLifeline;perimeter=lifelinePerimeter;whiteSpace=wrap;html=1;container=1;dropTarget=0;collapsible=0;recursiveResize=0;outlineConnect=0;portConstraint=eastwest;newEdgeStyle={&quot;curved&quot;:0,&quot;rounded&quot;:0};" vertex="1" parent="1">
          <mxGeometry x="341" y="154" width="100" height="620" as="geometry" />
        </mxCell>
        <mxCell id="IZcy4V6gYxRNqegxVH6X-3" value="Algo de suggestion" style="shape=umlLifeline;perimeter=lifelinePerimeter;whiteSpace=wrap;html=1;container=1;dropTarget=0;collapsible=0;recursiveResize=0;outlineConnect=0;portConstraint=eastwest;newEdgeStyle={&quot;curved&quot;:0,&quot;rounded&quot;:0};" vertex="1" parent="1">
          <mxGeometry x="641" y="154" width="100" height="620" as="geometry" />
        </mxCell>
        <mxCell id="IZcy4V6gYxRNqegxVH6X-4" value="sentence=input()" style="html=1;verticalAlign=bottom;endArrow=block;curved=0;rounded=0;" edge="1" parent="1" source="IZcy4V6gYxRNqegxVH6X-1" target="IZcy4V6gYxRNqegxVH6X-2">
          <mxGeometry width="80" relative="1" as="geometry">
            <mxPoint x="451" y="314" as="sourcePoint" />
            <mxPoint x="531" y="314" as="targetPoint" />
            <Array as="points">
              <mxPoint x="251" y="214" />
            </Array>
          </mxGeometry>
        </mxCell>
        <mxCell id="IZcy4V6gYxRNqegxVH6X-5" value="" style="html=1;verticalAlign=bottom;endArrow=block;curved=0;rounded=0;" edge="1" parent="1" source="IZcy4V6gYxRNqegxVH6X-2" target="IZcy4V6gYxRNqegxVH6X-2">
          <mxGeometry width="80" relative="1" as="geometry">
            <mxPoint x="351" y="314" as="sourcePoint" />
            <mxPoint x="431" y="314" as="targetPoint" />
            <Array as="points">
              <mxPoint x="451" y="314" />
              <mxPoint x="451" y="344" />
            </Array>
          </mxGeometry>
        </mxCell>
        <mxCell id="IZcy4V6gYxRNqegxVH6X-9" value="about_movie=sentence_about_movie(sentence)" style="edgeLabel;html=1;align=center;verticalAlign=middle;resizable=0;points=[];" connectable="0" vertex="1" parent="IZcy4V6gYxRNqegxVH6X-5">
          <mxGeometry x="-0.0265" y="4" relative="1" as="geometry">
            <mxPoint x="-4" y="1" as="offset" />
          </mxGeometry>
        </mxCell>
        <mxCell id="IZcy4V6gYxRNqegxVH6X-6" value="&lt;div&gt;if sentence==&quot;STOP&quot;&lt;/div&gt;" style="shape=umlFrame;whiteSpace=wrap;html=1;pointerEvents=0;width=150;height=20;" vertex="1" parent="1">
          <mxGeometry x="91" y="224" width="320" height="80" as="geometry" />
        </mxCell>
        <mxCell id="IZcy4V6gYxRNqegxVH6X-7" value="" style="shape=umlDestroy;whiteSpace=wrap;html=1;strokeWidth=3;targetShapes=umlLifeline;" vertex="1" parent="1">
          <mxGeometry x="376" y="264" width="30" height="30" as="geometry" />
        </mxCell>
        <mxCell id="IZcy4V6gYxRNqegxVH6X-8" value="end()" style="html=1;verticalAlign=bottom;endArrow=open;dashed=1;endSize=8;curved=0;rounded=0;" edge="1" parent="1" target="IZcy4V6gYxRNqegxVH6X-1">
          <mxGeometry relative="1" as="geometry">
            <mxPoint x="391" y="264" as="sourcePoint" />
            <mxPoint x="351" y="314" as="targetPoint" />
          </mxGeometry>
        </mxCell>
        <mxCell id="IZcy4V6gYxRNqegxVH6X-10" value="if about_movie==True" style="shape=umlFrame;whiteSpace=wrap;html=1;pointerEvents=0;width=140;height=20;" vertex="1" parent="1">
          <mxGeometry x="371" y="354" width="350" height="380" as="geometry" />
        </mxCell>
        <mxCell id="IZcy4V6gYxRNqegxVH6X-11" value="info=extract_movie_info(sentence)" style="html=1;verticalAlign=bottom;endArrow=block;curved=0;rounded=0;" edge="1" parent="1" source="IZcy4V6gYxRNqegxVH6X-2" target="IZcy4V6gYxRNqegxVH6X-2">
          <mxGeometry x="0.0585" y="10" width="80" relative="1" as="geometry">
            <mxPoint x="351" y="314" as="sourcePoint" />
            <mxPoint x="431" y="314" as="targetPoint" />
            <Array as="points">
              <mxPoint x="461" y="384" />
              <mxPoint x="461" y="414" />
            </Array>
            <mxPoint as="offset" />
          </mxGeometry>
        </mxCell>
        <mxCell id="IZcy4V6gYxRNqegxVH6X-12" value="if info==NONE" style="shape=umlFrame;whiteSpace=wrap;html=1;pointerEvents=0;width=140;height=20;collapsible=0;swimlaneFillColor=none;gradientColor=none;" vertex="1" parent="1">
          <mxGeometry x="376" y="424" width="335" height="200" as="geometry" />
        </mxCell>
        <mxCell id="IZcy4V6gYxRNqegxVH6X-13" value="" style="html=1;verticalAlign=bottom;endArrow=block;curved=0;rounded=0;" edge="1" parent="1" source="IZcy4V6gYxRNqegxVH6X-2" target="IZcy4V6gYxRNqegxVH6X-2">
          <mxGeometry x="0.0585" y="20" width="80" relative="1" as="geometry">
            <mxPoint x="351" y="394" as="sourcePoint" />
            <mxPoint x="431" y="394" as="targetPoint" />
            <Array as="points">
              <mxPoint x="461" y="454" />
              <mxPoint x="461" y="484" />
            </Array>
            <mxPoint as="offset" />
          </mxGeometry>
        </mxCell>
        <mxCell id="ZcuZ72Aizr1AhbtyT3yh-1" value="answer=general_response(sentence)" style="edgeLabel;html=1;align=center;verticalAlign=middle;resizable=0;points=[];" connectable="0" vertex="1" parent="IZcy4V6gYxRNqegxVH6X-13">
          <mxGeometry x="-0.0234" relative="1" as="geometry">
            <mxPoint x="29" y="-2" as="offset" />
          </mxGeometry>
        </mxCell>
        <mxCell id="IZcy4V6gYxRNqegxVH6X-14" value="" style="endArrow=none;dashed=1;html=1;rounded=0;entryX=1;entryY=0.417;entryDx=0;entryDy=0;entryPerimeter=0;exitX=0.006;exitY=0.417;exitDx=0;exitDy=0;exitPerimeter=0;" edge="1" parent="1" source="IZcy4V6gYxRNqegxVH6X-12" target="IZcy4V6gYxRNqegxVH6X-12">
          <mxGeometry width="50" height="50" relative="1" as="geometry">
            <mxPoint x="371" y="474" as="sourcePoint" />
            <mxPoint x="421" y="424" as="targetPoint" />
          </mxGeometry>
        </mxCell>
        <mxCell id="IZcy4V6gYxRNqegxVH6X-15" value="find_movie(info)" style="html=1;verticalAlign=bottom;endArrow=block;curved=0;rounded=0;" edge="1" parent="1" source="IZcy4V6gYxRNqegxVH6X-2" target="IZcy4V6gYxRNqegxVH6X-3">
          <mxGeometry width="80" relative="1" as="geometry">
            <mxPoint x="351" y="454" as="sourcePoint" />
            <mxPoint x="431" y="454" as="targetPoint" />
            <Array as="points">
              <mxPoint x="551" y="544" />
            </Array>
          </mxGeometry>
        </mxCell>
        <mxCell id="IZcy4V6gYxRNqegxVH6X-16" value="movie" style="html=1;verticalAlign=bottom;endArrow=open;dashed=1;endSize=8;curved=0;rounded=0;" edge="1" parent="1" source="IZcy4V6gYxRNqegxVH6X-3" target="IZcy4V6gYxRNqegxVH6X-2">
          <mxGeometry relative="1" as="geometry">
            <mxPoint x="431" y="454" as="sourcePoint" />
            <mxPoint x="351" y="454" as="targetPoint" />
            <Array as="points">
              <mxPoint x="551" y="564" />
            </Array>
          </mxGeometry>
        </mxCell>
        <mxCell id="IZcy4V6gYxRNqegxVH6X-17" value="answer=recommend_movie(sentence,movie)" style="html=1;verticalAlign=bottom;endArrow=block;curved=0;rounded=0;" edge="1" parent="1" source="IZcy4V6gYxRNqegxVH6X-2" target="IZcy4V6gYxRNqegxVH6X-2">
          <mxGeometry x="0.0585" y="20" width="80" relative="1" as="geometry">
            <mxPoint x="401" y="464" as="sourcePoint" />
            <mxPoint x="401" y="494" as="targetPoint" />
            <Array as="points">
              <mxPoint x="471" y="574" />
              <mxPoint x="471" y="604" />
            </Array>
            <mxPoint as="offset" />
          </mxGeometry>
        </mxCell>
        <mxCell id="IZcy4V6gYxRNqegxVH6X-19" value="&lt;div&gt;answer=remind_chatbot_role(sentence)&lt;/div&gt;" style="html=1;verticalAlign=bottom;endArrow=block;curved=0;rounded=0;" edge="1" parent="1" source="IZcy4V6gYxRNqegxVH6X-2" target="IZcy4V6gYxRNqegxVH6X-2">
          <mxGeometry x="0.1152" y="9" width="80" relative="1" as="geometry">
            <mxPoint x="401" y="464" as="sourcePoint" />
            <mxPoint x="401" y="494" as="targetPoint" />
            <Array as="points">
              <mxPoint x="471" y="684" />
              <mxPoint x="471" y="714" />
            </Array>
            <mxPoint as="offset" />
          </mxGeometry>
        </mxCell>
        <mxCell id="IZcy4V6gYxRNqegxVH6X-20" value="" style="endArrow=none;dashed=1;html=1;rounded=0;entryX=1;entryY=0.795;entryDx=0;entryDy=0;entryPerimeter=0;exitX=0;exitY=0.795;exitDx=0;exitDy=0;exitPerimeter=0;" edge="1" parent="1" source="IZcy4V6gYxRNqegxVH6X-10" target="IZcy4V6gYxRNqegxVH6X-10">
          <mxGeometry width="50" height="50" relative="1" as="geometry">
            <mxPoint x="388" y="517" as="sourcePoint" />
            <mxPoint x="721" y="517" as="targetPoint" />
          </mxGeometry>
        </mxCell>
        <mxCell id="IZcy4V6gYxRNqegxVH6X-21" value="answer" style="html=1;verticalAlign=bottom;endArrow=open;dashed=1;endSize=8;curved=0;rounded=0;" edge="1" parent="1" source="IZcy4V6gYxRNqegxVH6X-2" target="IZcy4V6gYxRNqegxVH6X-1">
          <mxGeometry relative="1" as="geometry">
            <mxPoint x="431" y="664" as="sourcePoint" />
            <mxPoint x="351" y="664" as="targetPoint" />
            <Array as="points">
              <mxPoint x="271" y="754" />
            </Array>
          </mxGeometry>
        </mxCell>
      </root>
    </mxGraphModel>
  </diagram>
  <diagram id="yNxUE-UsFRBFdoz0cdBE" name="diagramme d&#39;activité">
    <mxGraphModel grid="1" page="1" gridSize="10" guides="1" tooltips="1" connect="1" arrows="1" fold="1" pageScale="1" pageWidth="1100" pageHeight="850" math="0" shadow="0">
      <root>
        <mxCell id="0" />
        <mxCell id="1" parent="0" />
        <mxCell id="jr22IIzBp_neiqwV-zz0-3" style="edgeStyle=orthogonalEdgeStyle;rounded=0;orthogonalLoop=1;jettySize=auto;html=1;" edge="1" parent="1" source="jr22IIzBp_neiqwV-zz0-1" target="jr22IIzBp_neiqwV-zz0-2">
          <mxGeometry relative="1" as="geometry" />
        </mxCell>
        <mxCell id="jr22IIzBp_neiqwV-zz0-1" value="" style="strokeWidth=2;html=1;shape=mxgraph.flowchart.start_2;whiteSpace=wrap;" vertex="1" parent="1">
          <mxGeometry x="592.5" y="24" width="25" height="28" as="geometry" />
        </mxCell>
        <mxCell id="jr22IIzBp_neiqwV-zz0-6" style="edgeStyle=orthogonalEdgeStyle;rounded=0;orthogonalLoop=1;jettySize=auto;html=1;entryX=0.5;entryY=0;entryDx=0;entryDy=0;" edge="1" parent="1" source="jr22IIzBp_neiqwV-zz0-2" target="jr22IIzBp_neiqwV-zz0-4">
          <mxGeometry relative="1" as="geometry" />
        </mxCell>
        <mxCell id="jr22IIzBp_neiqwV-zz0-2" value="Message de l&#39;utilisateur" style="rounded=1;whiteSpace=wrap;html=1;" vertex="1" parent="1">
          <mxGeometry x="545" y="144" width="120" height="60" as="geometry" />
        </mxCell>
        <mxCell id="jr22IIzBp_neiqwV-zz0-8" style="edgeStyle=orthogonalEdgeStyle;rounded=0;orthogonalLoop=1;jettySize=auto;html=1;entryX=0.5;entryY=0;entryDx=0;entryDy=0;" edge="1" parent="1" source="jr22IIzBp_neiqwV-zz0-4" target="jr22IIzBp_neiqwV-zz0-7">
          <mxGeometry relative="1" as="geometry" />
        </mxCell>
        <mxCell id="jr22IIzBp_neiqwV-zz0-4" value="Conversation portant sur un film ?" style="rounded=1;whiteSpace=wrap;html=1;" vertex="1" parent="1">
          <mxGeometry x="545" y="297" width="120" height="60" as="geometry" />
        </mxCell>
        <mxCell id="jr22IIzBp_neiqwV-zz0-10" style="edgeStyle=orthogonalEdgeStyle;rounded=0;orthogonalLoop=1;jettySize=auto;html=1;entryX=1;entryY=0.5;entryDx=0;entryDy=0;" edge="1" parent="1" source="jr22IIzBp_neiqwV-zz0-7" target="jr22IIzBp_neiqwV-zz0-9">
          <mxGeometry relative="1" as="geometry" />
        </mxCell>
        <mxCell id="jr22IIzBp_neiqwV-zz0-11" value="OUI" style="edgeLabel;html=1;align=center;verticalAlign=middle;resizable=0;points=[];" connectable="0" vertex="1" parent="jr22IIzBp_neiqwV-zz0-10">
          <mxGeometry x="-0.0286" y="-1" relative="1" as="geometry">
            <mxPoint as="offset" />
          </mxGeometry>
        </mxCell>
        <mxCell id="jr22IIzBp_neiqwV-zz0-13" style="edgeStyle=orthogonalEdgeStyle;rounded=0;orthogonalLoop=1;jettySize=auto;html=1;" edge="1" parent="1" source="jr22IIzBp_neiqwV-zz0-7" target="jr22IIzBp_neiqwV-zz0-12">
          <mxGeometry relative="1" as="geometry" />
        </mxCell>
        <mxCell id="jr22IIzBp_neiqwV-zz0-14" value="NON" style="edgeLabel;html=1;align=center;verticalAlign=middle;resizable=0;points=[];" connectable="0" vertex="1" parent="jr22IIzBp_neiqwV-zz0-13">
          <mxGeometry x="-0.45" y="-1" relative="1" as="geometry">
            <mxPoint as="offset" />
          </mxGeometry>
        </mxCell>
        <mxCell id="jr22IIzBp_neiqwV-zz0-7" value="" style="rhombus;whiteSpace=wrap;html=1;" vertex="1" parent="1">
          <mxGeometry x="565" y="447" width="80" height="80" as="geometry" />
        </mxCell>
        <mxCell id="jr22IIzBp_neiqwV-zz0-17" style="edgeStyle=orthogonalEdgeStyle;rounded=0;orthogonalLoop=1;jettySize=auto;html=1;exitX=0.5;exitY=1;exitDx=0;exitDy=0;entryX=0.5;entryY=0;entryDx=0;entryDy=0;" edge="1" parent="1" source="jr22IIzBp_neiqwV-zz0-9" target="jr22IIzBp_neiqwV-zz0-16">
          <mxGeometry relative="1" as="geometry" />
        </mxCell>
        <mxCell id="jr22IIzBp_neiqwV-zz0-9" value="Extraction du nom du film dans le message" style="rounded=1;whiteSpace=wrap;html=1;" vertex="1" parent="1">
          <mxGeometry x="305" y="457" width="120" height="60" as="geometry" />
        </mxCell>
        <mxCell id="jr22IIzBp_neiqwV-zz0-45" style="edgeStyle=orthogonalEdgeStyle;rounded=0;orthogonalLoop=1;jettySize=auto;html=1;exitX=0.5;exitY=1;exitDx=0;exitDy=0;entryX=1;entryY=0.5;entryDx=0;entryDy=0;" edge="1" parent="1" source="jr22IIzBp_neiqwV-zz0-12" target="jr22IIzBp_neiqwV-zz0-44">
          <mxGeometry relative="1" as="geometry" />
        </mxCell>
        <mxCell id="jr22IIzBp_neiqwV-zz0-12" value="Réponse disant que le message n&#39;a pas été compris" style="rounded=1;whiteSpace=wrap;html=1;" vertex="1" parent="1">
          <mxGeometry x="790" y="457" width="120" height="60" as="geometry" />
        </mxCell>
        <mxCell id="jr22IIzBp_neiqwV-zz0-19" style="edgeStyle=orthogonalEdgeStyle;rounded=0;orthogonalLoop=1;jettySize=auto;html=1;entryX=1;entryY=0.5;entryDx=0;entryDy=0;" edge="1" parent="1" source="jr22IIzBp_neiqwV-zz0-16" target="jr22IIzBp_neiqwV-zz0-18">
          <mxGeometry relative="1" as="geometry" />
        </mxCell>
        <mxCell id="jr22IIzBp_neiqwV-zz0-20" value="REUSSI" style="edgeLabel;html=1;align=center;verticalAlign=middle;resizable=0;points=[];" connectable="0" vertex="1" parent="jr22IIzBp_neiqwV-zz0-19">
          <mxGeometry x="0.12" relative="1" as="geometry">
            <mxPoint as="offset" />
          </mxGeometry>
        </mxCell>
        <mxCell id="jr22IIzBp_neiqwV-zz0-22" style="edgeStyle=orthogonalEdgeStyle;rounded=0;orthogonalLoop=1;jettySize=auto;html=1;entryX=0.5;entryY=0;entryDx=0;entryDy=0;" edge="1" parent="1" source="jr22IIzBp_neiqwV-zz0-16" target="jr22IIzBp_neiqwV-zz0-21">
          <mxGeometry relative="1" as="geometry" />
        </mxCell>
        <mxCell id="jr22IIzBp_neiqwV-zz0-23" value="RATEE" style="edgeLabel;html=1;align=center;verticalAlign=middle;resizable=0;points=[];" connectable="0" vertex="1" parent="jr22IIzBp_neiqwV-zz0-22">
          <mxGeometry x="-0.1333" y="-1" relative="1" as="geometry">
            <mxPoint as="offset" />
          </mxGeometry>
        </mxCell>
        <mxCell id="jr22IIzBp_neiqwV-zz0-16" value="" style="rhombus;whiteSpace=wrap;html=1;" vertex="1" parent="1">
          <mxGeometry x="325" y="607" width="80" height="80" as="geometry" />
        </mxCell>
        <mxCell id="jr22IIzBp_neiqwV-zz0-25" style="edgeStyle=orthogonalEdgeStyle;rounded=0;orthogonalLoop=1;jettySize=auto;html=1;entryX=0.5;entryY=0;entryDx=0;entryDy=0;" edge="1" parent="1" source="jr22IIzBp_neiqwV-zz0-18" target="jr22IIzBp_neiqwV-zz0-24">
          <mxGeometry relative="1" as="geometry" />
        </mxCell>
        <mxCell id="jr22IIzBp_neiqwV-zz0-18" value="Nom présent dans la base de données ?" style="rounded=1;whiteSpace=wrap;html=1;" vertex="1" parent="1">
          <mxGeometry x="80" y="617" width="120" height="60" as="geometry" />
        </mxCell>
        <mxCell id="jr22IIzBp_neiqwV-zz0-30" style="edgeStyle=orthogonalEdgeStyle;rounded=0;orthogonalLoop=1;jettySize=auto;html=1;" edge="1" parent="1" source="jr22IIzBp_neiqwV-zz0-21" target="jr22IIzBp_neiqwV-zz0-29">
          <mxGeometry relative="1" as="geometry" />
        </mxCell>
        <mxCell id="jr22IIzBp_neiqwV-zz0-21" value="Synopsis proche dans la base de données" style="rounded=1;whiteSpace=wrap;html=1;" vertex="1" parent="1">
          <mxGeometry x="305" y="777" width="120" height="60" as="geometry" />
        </mxCell>
        <mxCell id="jr22IIzBp_neiqwV-zz0-26" style="edgeStyle=orthogonalEdgeStyle;rounded=0;orthogonalLoop=1;jettySize=auto;html=1;entryX=0;entryY=0.5;entryDx=0;entryDy=0;" edge="1" parent="1" source="jr22IIzBp_neiqwV-zz0-24" target="jr22IIzBp_neiqwV-zz0-21">
          <mxGeometry relative="1" as="geometry" />
        </mxCell>
        <mxCell id="jr22IIzBp_neiqwV-zz0-27" value="NON" style="edgeLabel;html=1;align=center;verticalAlign=middle;resizable=0;points=[];" connectable="0" vertex="1" parent="jr22IIzBp_neiqwV-zz0-26">
          <mxGeometry x="-0.136" y="1" relative="1" as="geometry">
            <mxPoint as="offset" />
          </mxGeometry>
        </mxCell>
        <mxCell id="jr22IIzBp_neiqwV-zz0-38" style="edgeStyle=orthogonalEdgeStyle;rounded=0;orthogonalLoop=1;jettySize=auto;html=1;exitX=0.5;exitY=1;exitDx=0;exitDy=0;entryX=0;entryY=0.5;entryDx=0;entryDy=0;" edge="1" parent="1" source="jr22IIzBp_neiqwV-zz0-24" target="jr22IIzBp_neiqwV-zz0-34">
          <mxGeometry relative="1" as="geometry" />
        </mxCell>
        <mxCell id="jr22IIzBp_neiqwV-zz0-39" value="OUI" style="edgeLabel;html=1;align=center;verticalAlign=middle;resizable=0;points=[];" connectable="0" vertex="1" parent="jr22IIzBp_neiqwV-zz0-38">
          <mxGeometry x="-0.7574" y="-4" relative="1" as="geometry">
            <mxPoint as="offset" />
          </mxGeometry>
        </mxCell>
        <mxCell id="jr22IIzBp_neiqwV-zz0-24" value="" style="rhombus;whiteSpace=wrap;html=1;" vertex="1" parent="1">
          <mxGeometry x="100" y="767" width="80" height="80" as="geometry" />
        </mxCell>
        <mxCell id="jr22IIzBp_neiqwV-zz0-32" style="edgeStyle=orthogonalEdgeStyle;rounded=0;orthogonalLoop=1;jettySize=auto;html=1;" edge="1" parent="1" source="jr22IIzBp_neiqwV-zz0-29" target="jr22IIzBp_neiqwV-zz0-31">
          <mxGeometry relative="1" as="geometry" />
        </mxCell>
        <mxCell id="jr22IIzBp_neiqwV-zz0-33" value="NON" style="edgeLabel;html=1;align=center;verticalAlign=middle;resizable=0;points=[];" connectable="0" vertex="1" parent="jr22IIzBp_neiqwV-zz0-32">
          <mxGeometry x="-0.0714" y="1" relative="1" as="geometry">
            <mxPoint as="offset" />
          </mxGeometry>
        </mxCell>
        <mxCell id="jr22IIzBp_neiqwV-zz0-40" style="edgeStyle=orthogonalEdgeStyle;rounded=0;orthogonalLoop=1;jettySize=auto;html=1;exitX=0.5;exitY=1;exitDx=0;exitDy=0;entryX=0.5;entryY=0;entryDx=0;entryDy=0;" edge="1" parent="1" source="jr22IIzBp_neiqwV-zz0-29" target="jr22IIzBp_neiqwV-zz0-34">
          <mxGeometry relative="1" as="geometry" />
        </mxCell>
        <mxCell id="jr22IIzBp_neiqwV-zz0-41" value="OUI" style="edgeLabel;html=1;align=center;verticalAlign=middle;resizable=0;points=[];" connectable="0" vertex="1" parent="jr22IIzBp_neiqwV-zz0-40">
          <mxGeometry x="-0.7003" y="-1" relative="1" as="geometry">
            <mxPoint as="offset" />
          </mxGeometry>
        </mxCell>
        <mxCell id="jr22IIzBp_neiqwV-zz0-29" value="" style="rhombus;whiteSpace=wrap;html=1;" vertex="1" parent="1">
          <mxGeometry x="325" y="924" width="80" height="80" as="geometry" />
        </mxCell>
        <mxCell id="jr22IIzBp_neiqwV-zz0-46" style="edgeStyle=orthogonalEdgeStyle;rounded=0;orthogonalLoop=1;jettySize=auto;html=1;" edge="1" parent="1" source="jr22IIzBp_neiqwV-zz0-31" target="jr22IIzBp_neiqwV-zz0-44">
          <mxGeometry relative="1" as="geometry" />
        </mxCell>
        <mxCell id="jr22IIzBp_neiqwV-zz0-31" value="Réponse libre" style="rounded=1;whiteSpace=wrap;html=1;" vertex="1" parent="1">
          <mxGeometry x="545" y="934" width="120" height="60" as="geometry" />
        </mxCell>
        <mxCell id="jr22IIzBp_neiqwV-zz0-43" style="edgeStyle=orthogonalEdgeStyle;rounded=0;orthogonalLoop=1;jettySize=auto;html=1;" edge="1" parent="1" source="jr22IIzBp_neiqwV-zz0-34" target="jr22IIzBp_neiqwV-zz0-42">
          <mxGeometry relative="1" as="geometry" />
        </mxCell>
        <mxCell id="jr22IIzBp_neiqwV-zz0-34" value="Résume le synopsis" style="rounded=1;whiteSpace=wrap;html=1;" vertex="1" parent="1">
          <mxGeometry x="305" y="1094" width="120" height="60" as="geometry" />
        </mxCell>
        <mxCell id="jr22IIzBp_neiqwV-zz0-47" style="edgeStyle=orthogonalEdgeStyle;rounded=0;orthogonalLoop=1;jettySize=auto;html=1;exitX=0.5;exitY=1;exitDx=0;exitDy=0;entryX=0;entryY=0.5;entryDx=0;entryDy=0;" edge="1" parent="1" source="jr22IIzBp_neiqwV-zz0-42" target="jr22IIzBp_neiqwV-zz0-44">
          <mxGeometry relative="1" as="geometry" />
        </mxCell>
        <mxCell id="jr22IIzBp_neiqwV-zz0-42" value="Recommandation du film" style="rounded=1;whiteSpace=wrap;html=1;" vertex="1" parent="1">
          <mxGeometry x="305" y="1244" width="120" height="60" as="geometry" />
        </mxCell>
        <mxCell id="jr22IIzBp_neiqwV-zz0-44" value="" style="ellipse;html=1;shape=endState;fillColor=#000000;strokeColor=#ff0000;" vertex="1" parent="1">
          <mxGeometry x="590" y="1404" width="30" height="30" as="geometry" />
        </mxCell>
      </root>
    </mxGraphModel>
  </diagram>
</mxfile>
